<svg width="32" height="32" viewBox="0 0 54 54" fill="none" xmlns="http://www.w3.org/2000/svg">
<path d="M48.3335 0.333344C49.748 0.333344 51.1045 0.895246 52.1047 1.89544C53.1049 2.89563 53.6668 4.25219 53.6668 5.66668V37.6667C53.6668 39.0812 53.1049 40.4377 52.1047 41.4379C51.1045 42.4381 49.748 43 48.3335 43H11.0002L0.333496 53.6667V5.66668C0.333496 2.70668 2.7335 0.333344 5.66683 0.333344H48.3335ZM5.66683 5.66668V40.7867L8.78683 37.6667H48.3335V5.66668H5.66683ZM11.0002 13.6667H43.0002V19H11.0002V13.6667ZM11.0002 24.3333H35.0002V29.6667H11.0002V24.3333Z" fill="#FCFCFC"/>
</svg>
