<svg width="32" height="32" viewBox="0 0 32 32" fill="none" xmlns="http://www.w3.org/2000/svg">
<path d="M30.24 0H1.76C1.29322 0 0.845556 0.185428 0.515492 0.515492C0.185428 0.845556 0 1.29322 0 1.76V30.24C0 30.4711 0.0455239 30.7 0.133972 30.9135C0.22242 31.1271 0.352061 31.3211 0.515492 31.4845C0.678923 31.6479 0.872944 31.7776 1.08648 31.866C1.30001 31.9545 1.52887 32 1.76 32H17.088V19.6H12.928V14.8H17.088V11.2C17.0018 10.3548 17.1016 9.501 17.3803 8.69846C17.6591 7.89592 18.11 7.16407 18.7015 6.55426C19.2931 5.94444 20.0108 5.47143 20.8045 5.16838C21.5982 4.86534 22.4486 4.7396 23.296 4.8C24.5413 4.79234 25.7861 4.85644 27.024 4.992V9.312H24.48C22.464 9.312 22.08 10.272 22.08 11.664V14.752H26.88L26.256 19.552H22.08V32H30.24C30.4711 32 30.7 31.9545 30.9135 31.866C31.1271 31.7776 31.3211 31.6479 31.4845 31.4845C31.6479 31.3211 31.7776 31.1271 31.866 30.9135C31.9545 30.7 32 30.4711 32 30.24V1.76C32 1.52887 31.9545 1.30001 31.866 1.08648C31.7776 0.872944 31.6479 0.678923 31.4845 0.515492C31.3211 0.352061 31.1271 0.22242 30.9135 0.133972C30.7 0.0455239 30.4711 0 30.24 0Z" fill="black"/>
</svg>
