<svg width="24" height="24" viewBox="0 0 24 24" fill="none" xmlns="http://www.w3.org/2000/svg">
<path d="M23.6392 9.90715L12.8146 0.271016C12.3335 -0.0903388 11.7322 -0.0903388 11.2511 0.271016L0.426535 9.90715C-0.0545559 10.389 -0.174829 11.1117 0.306262 11.5935C0.787353 12.0753 1.50899 12.1957 1.99008 11.7139L2.3509 11.2321V22.7955C2.3509 23.5182 2.83199 24 3.55363 24H20.3918C21.1135 24 21.5945 23.5182 21.5945 22.7955V11.2321L21.9554 11.5935C22.4365 12.0753 23.1581 11.9548 23.6392 11.473C24.1203 11.1117 24.1203 10.2685 23.6392 9.90715ZM11.9727 10.7503C13.7768 10.7503 15.2201 12.1957 15.2201 14.0025C15.2201 15.8093 13.7768 17.2547 11.9727 17.2547C10.1686 17.2547 8.72536 15.8093 8.72536 14.0025C8.72536 12.1957 10.1686 10.7503 11.9727 10.7503ZM5.95908 21.591C5.95908 21.4705 5.95908 21.4705 6.07936 21.3501C8.72536 18.0979 13.5363 17.4956 16.7836 20.1455C17.2647 20.5069 17.6255 20.8683 17.9864 21.3501C17.9864 21.3501 17.9864 21.4705 18.1066 21.591H5.95908Z" fill="#5865F2"/>
</svg>
