<svg width="32" height="32" viewBox="0 0 32 32" fill="none" xmlns="http://www.w3.org/2000/svg">
<path d="M32 8.3834C32.0012 8.17285 31.9608 7.96412 31.8812 7.7692C31.8016 7.57427 31.6843 7.39698 31.536 7.24749L24.752 0.463992C24.6025 0.315713 24.4252 0.198401 24.2302 0.118784C24.0353 0.0391665 23.8266 -0.0011906 23.616 2.67409e-05C23.4054 -0.0011906 23.1967 0.0391665 23.0017 0.118784C22.8068 0.198401 22.6295 0.315713 22.48 0.463992L17.952 4.99165L0.464026 22.4783C0.315736 22.6278 0.198416 22.8051 0.118793 23.0001C0.0391693 23.195 -0.00119068 23.4037 2.67428e-05 23.6143V30.3978C2.67428e-05 30.8221 0.168597 31.229 0.468655 31.529C0.768713 31.8291 1.17568 31.9976 1.60002 31.9976H8.38401C8.6079 32.0098 8.83184 31.9748 9.04132 31.8949C9.25081 31.8149 9.44115 31.6919 9.60001 31.5337L26.992 14.047L31.536 9.59931C31.682 9.44425 31.801 9.26579 31.888 9.07135C31.9034 8.94382 31.9034 8.8149 31.888 8.68738C31.8955 8.6129 31.8955 8.53787 31.888 8.4634L32 8.3834ZM7.72801 28.7979H3.20002V24.2702L19.088 8.3834L23.616 12.9111L7.72801 28.7979ZM25.872 10.6552L21.344 6.12757L23.616 3.87174L28.128 8.3834L25.872 10.6552Z" fill="black"/>
</svg>
