<svg width="24" height="24" viewBox="0 0 24 24" fill="none" xmlns="http://www.w3.org/2000/svg">
<path d="M20.4 4H16.8V2.66667C16.8 1.2 15.72 0 14.4 0H9.6C8.28 0 7.2 1.2 7.2 2.66667V4H3.6C1.56 4 0 5.73333 0 8V20C0 22.2667 1.56 24 3.6 24H20.4C22.44 24 24 22.2667 24 20V8C24 5.73333 22.44 4 20.4 4ZM9.6 2.66667H14.4V4H9.6V2.66667ZM21.6 20C21.6 20.8 21.12 21.3333 20.4 21.3333H3.6C2.88 21.3333 2.4 20.8 2.4 20V12.5333L8.04 14.6667C8.16 14.6667 8.28 14.6667 8.4 14.6667H15.6C15.72 14.6667 15.84 14.6667 15.96 14.5333L21.6 12.4V20Z" fill="#5865F2"/>
</svg>
