<svg width="32" height="32" viewBox="0 0 32 32" fill="none" xmlns="http://www.w3.org/2000/svg">
<path d="M31.096 19.4479C31.3237 18.3823 31.4371 17.2955 31.4345 16.2059C31.4232 14.2136 31.0192 12.2429 30.2457 10.4067C29.4723 8.57052 28.3444 6.90476 26.9267 5.50467C25.509 4.10459 23.8292 2.99764 21.9833 2.24711C20.1374 1.49658 18.1617 1.11718 16.1692 1.13062C15.2974 1.12838 14.4273 1.2043 13.5691 1.35746C12.2368 0.52043 10.7056 0.0533669 9.13292 0.00430779C7.56024 -0.0447513 6.00287 0.325964 4.621 1.07833C3.23913 1.83069 2.08264 2.93754 1.27047 4.28503C0.458301 5.63252 0.0197769 7.17202 0 8.74518C0.00100768 10.2961 0.417335 11.8186 1.20573 13.1542C1.01012 14.1475 0.909048 15.157 0.903858 16.1693C0.920562 18.1479 1.33015 20.1035 2.10883 21.9226C2.88752 23.7417 4.0198 25.388 5.43996 26.7659C6.86011 28.1439 8.53985 29.2261 10.3817 29.9497C12.2235 30.6733 14.1907 31.024 16.1692 30.9812C17.1053 30.9882 18.0396 30.8993 18.9576 30.7159C20.2244 31.484 21.6625 31.9247 23.1422 31.9984C24.6351 32.0267 26.1101 31.67 27.425 30.9627C28.74 30.2554 29.8506 29.2214 30.6498 27.9603C31.4491 26.6992 31.9099 25.2535 31.9881 23.7625C32.0662 22.2716 31.759 20.7856 31.096 19.4479ZM23.1037 22.3879C22.4415 23.2754 21.5395 23.9553 20.5038 24.3473C19.2222 24.8575 17.8499 25.1009 16.471 25.0627C14.8692 25.1146 13.2786 24.7788 11.8345 24.0839C10.9899 23.634 10.2657 22.9877 9.723 22.1995C9.24125 21.5407 8.96613 20.7536 8.93256 19.9382C8.92877 19.731 8.97075 19.5255 9.05551 19.3364C9.14027 19.1473 9.26573 18.9792 9.42292 18.8441C9.76169 18.5363 10.2079 18.374 10.6653 18.3922C11.0353 18.3769 11.398 18.498 11.6845 18.7325C11.9989 19.0257 12.2434 19.3858 12.3999 19.7862C12.5935 20.2882 12.8605 20.7587 13.1922 21.1823C13.4957 21.5804 13.8982 21.892 14.3596 22.086C14.9913 22.3522 15.6724 22.4807 16.3576 22.4629C17.327 22.5159 18.2888 22.2659 19.1096 21.7476C19.4264 21.5624 19.6901 21.2985 19.8751 20.9815C20.06 20.6645 20.16 20.3052 20.1653 19.9382C20.1761 19.6789 20.1313 19.4203 20.0338 19.1799C19.9362 18.9394 19.7883 18.7226 19.5999 18.5441C19.1848 18.1511 18.6797 17.8659 18.1287 17.7134C17.5268 17.525 16.696 17.3366 15.6788 17.1116C14.5105 16.8645 13.3639 16.5243 12.2499 16.0943C11.3936 15.7513 10.6405 15.1929 10.0634 14.4734C9.51746 13.7476 9.23775 12.8562 9.27112 11.9486C9.27005 11.0221 9.57493 10.121 10.1385 9.38548C10.777 8.58981 11.6257 7.98899 12.5884 7.65117C13.8104 7.22046 15.1008 7.01647 16.396 7.04923C17.4161 7.03617 18.4325 7.17553 19.4114 7.4627C20.173 7.6833 20.8879 8.04103 21.521 8.51831C22.0256 8.89434 22.4488 9.36854 22.7653 9.91238C23.0072 10.3376 23.1368 10.8174 23.1422 11.3065C23.1428 11.5186 23.0995 11.7285 23.0151 11.9231C22.9308 12.1176 22.8071 12.2927 22.6519 12.4372C22.497 12.5995 22.3094 12.7272 22.1016 12.8117C21.8937 12.8962 21.6703 12.9357 21.446 12.9275C21.0821 12.949 20.7221 12.8422 20.4288 12.6256C20.1259 12.3425 19.8713 12.0119 19.6749 11.6469C19.375 11.0488 18.9508 10.5217 18.4307 10.1008C17.7335 9.66468 16.9137 9.46633 16.0942 9.53554C15.2479 9.4961 14.4087 9.70605 13.6807 10.1393C13.4193 10.2799 13.1987 10.4857 13.0403 10.7367C12.882 10.9877 12.7912 11.2754 12.7769 11.5719C12.7789 11.8975 12.8846 12.2141 13.0788 12.4756C13.3122 12.7556 13.6097 12.9752 13.9461 13.1159C14.2896 13.3033 14.6571 13.443 15.0383 13.5312C15.4153 13.6447 16.0192 13.7947 16.8845 13.9832C17.9403 14.21 18.9211 14.4735 19.7883 14.7369C20.5736 14.9695 21.3221 15.3119 22.0115 15.7541C22.5985 16.1399 23.0887 16.6557 23.4441 17.2616C23.8073 17.9459 23.9887 18.7119 23.9711 19.4863C24.0159 20.5234 23.7104 21.5454 23.1037 22.3879Z" fill="black"/>
</svg>
