<svg width="24" height="24" viewBox="0 0 24 24" fill="none" xmlns="http://www.w3.org/2000/svg">
<path d="M11.3684 24V20.1753C5.04 19.8991 0 15.4794 0 10.093C0 4.5259 5.38105 0 12 0C18.6189 0 24 4.5259 24 10.093C24 15.3519 19.6547 20.6428 13.1747 23.2669L11.3684 24ZM12 2.12483C6.77053 2.12483 2.52632 5.69456 2.52632 10.093C2.52632 14.4914 6.77053 18.0611 12 18.0611H13.8947V20.5046C18.4926 18.0611 21.4737 14.0452 21.4737 10.093C21.4737 5.69456 17.2295 2.12483 12 2.12483ZM10.7368 14.3426H13.2632V16.4675H10.7368V14.3426ZM13.2632 12.749H10.7368C10.7368 9.29615 14.5263 9.56175 14.5263 7.43692C14.5263 6.26826 13.3895 5.31209 12 5.31209C10.6105 5.31209 9.47368 6.26826 9.47368 7.43692H6.94737C6.94737 5.08898 9.20842 3.18725 12 3.18725C14.7916 3.18725 17.0526 5.08898 17.0526 7.43692C17.0526 10.093 13.2632 10.3586 13.2632 12.749Z" fill="#5865F2"/>
</svg>
