<svg width="32" height="32" viewBox="0 0 32 32" fill="none" xmlns="http://www.w3.org/2000/svg">
<path d="M32 7.28C31.982 6.58972 31.9286 5.90081 31.84 5.216C31.7205 4.6162 31.5214 4.03505 31.248 3.488C30.962 2.89457 30.578 2.35364 30.112 1.888C29.6417 1.42753 29.1018 1.04415 28.512 0.752C27.9642 0.483911 27.3831 0.290198 26.784 0.176C26.1057 0.074399 25.4217 0.0156162 24.736 0H7.28C6.58972 0.0179782 5.90081 0.0713817 5.216 0.16C4.6162 0.279469 4.03505 0.478565 3.488 0.752C2.89457 1.03798 2.35364 1.42204 1.888 1.888C1.42753 2.35826 1.04415 2.89823 0.752 3.488C0.483911 4.03578 0.290198 4.61692 0.176 5.216C0.074399 5.8943 0.0156162 6.57832 0 7.264C0 7.568 0 8 0 8.128V23.872C0 24.048 0 24.432 0 24.72C0.0179782 25.4103 0.0713817 26.0992 0.16 26.784C0.279469 27.3838 0.478565 27.9649 0.752 28.512C1.03798 29.1054 1.42204 29.6464 1.888 30.112C2.35826 30.5725 2.89823 30.9559 3.488 31.248C4.03578 31.5161 4.61692 31.7098 5.216 31.824C5.8943 31.9256 6.57832 31.9844 7.264 32H24.72C25.4103 31.982 26.0992 31.9286 26.784 31.84C27.3838 31.7205 27.9649 31.5214 28.512 31.248C29.1054 30.962 29.6464 30.578 30.112 30.112C30.5725 29.6417 30.9559 29.1018 31.248 28.512C31.5161 27.9642 31.7098 27.3831 31.824 26.784C31.9256 26.1057 31.9844 25.4217 32 24.736C32 24.432 32 24.048 32 23.872V8.128C32 8 32 7.568 32 7.28ZM16.368 27.2C14.4465 27.1905 12.5586 26.6952 10.88 25.76L4.8 27.36L6.4 21.408C5.36818 19.6743 4.81598 17.6974 4.8 15.68C4.80637 13.4127 5.48352 11.1979 6.74618 9.31473C8.00883 7.43152 9.80051 5.96405 11.8956 5.09715C13.9906 4.23024 16.2954 4.00267 18.5195 4.4431C20.7436 4.88353 22.7877 5.97226 24.3943 7.57217C26.0009 9.17207 27.0981 11.2116 27.5478 13.4339C27.9974 15.6562 27.7794 17.9618 26.9213 20.0605C26.0631 22.1591 24.6031 23.9569 22.7251 25.2274C20.8472 26.4978 18.6353 27.1842 16.368 27.2ZM16.368 6.192C14.6717 6.21141 13.0108 6.67997 11.5545 7.54998C10.0982 8.41999 8.89836 9.66037 8.07727 11.1448C7.25618 12.6293 6.84312 14.3048 6.88014 16.0008C6.91715 17.6969 7.40293 19.3528 8.288 20.8L8.512 21.168L7.552 24.672L11.2 23.68L11.552 23.888C13.0073 24.7452 14.663 25.2033 16.352 25.216C18.8981 25.216 21.3399 24.2046 23.1402 22.4042C24.9406 20.6039 25.952 18.1621 25.952 15.616C25.952 13.0699 24.9406 10.6281 23.1402 8.82778C21.3399 7.02743 18.8981 6.016 16.352 6.016L16.368 6.192ZM21.968 19.824C21.7584 20.1735 21.4778 20.4752 21.1443 20.7095C20.8109 20.9438 20.4319 21.1054 20.032 21.184C19.4345 21.2932 18.8193 21.2548 18.24 21.072C17.695 20.9016 17.1607 20.6986 16.64 20.464C14.662 19.4715 12.9751 17.983 11.744 16.144C11.075 15.292 10.6691 14.2633 10.576 13.184C10.5665 12.7357 10.6513 12.2903 10.8249 11.8769C10.9986 11.4634 11.2572 11.0911 11.584 10.784C11.6803 10.6749 11.7984 10.5871 11.9306 10.5265C12.0629 10.4659 12.2065 10.4337 12.352 10.432H12.8C12.976 10.432 13.216 10.432 13.44 10.928C13.664 11.424 14.256 12.912 14.336 13.056C14.3753 13.1328 14.3958 13.2178 14.3958 13.304C14.3958 13.3902 14.3753 13.4752 14.336 13.552C14.2653 13.7259 14.1681 13.8878 14.048 14.032C13.904 14.208 13.744 14.416 13.616 14.544C13.488 14.672 13.328 14.832 13.488 15.12C13.9233 15.8547 14.4622 16.5229 15.088 17.104C15.7695 17.7062 16.5486 18.1877 17.392 18.528C17.68 18.672 17.856 18.656 18.016 18.528C18.176 18.4 18.736 17.696 18.928 17.408C19.12 17.12 19.312 17.168 19.568 17.264C19.824 17.36 21.248 18.048 21.536 18.192C21.824 18.336 22 18.4 22.08 18.528C22.1494 18.9468 22.1108 19.3763 21.968 19.776V19.824Z" fill="black"/>
</svg>
